<svg xmlns="http://www.w3.org/2000/svg" width="50" height="50" viewBox="0 0 50 50">
  <g id="ft-youtube" transform="translate(-405 -5707)">
    <circle id="Ellipse_22" data-name="Ellipse 22" cx="25" cy="25" r="25" transform="translate(405 5707)" fill="rgba(255,193,193,0.5)"/>
    <path id="ft-youtube-2" data-name="ft-youtube" d="M20.628,6.7A2.512,2.512,0,0,0,18.86,4.921C17.3,4.5,11.048,4.5,11.048,4.5s-6.253,0-7.812.421A2.513,2.513,0,0,0,1.468,6.7a26.357,26.357,0,0,0-.418,4.844,26.357,26.357,0,0,0,.418,4.844,2.475,2.475,0,0,0,1.768,1.751c1.559.421,7.812.421,7.812.421s6.253,0,7.812-.421a2.475,2.475,0,0,0,1.768-1.751,26.357,26.357,0,0,0,.418-4.844A26.357,26.357,0,0,0,20.628,6.7ZM9,14.517V8.571l5.226,2.973L9,14.517Z" transform="translate(418.952 5720.47)" fill="#fff"/>
  </g>
</svg>
