<svg xmlns="http://www.w3.org/2000/svg" width="50" height="50" viewBox="0 0 50 50">
  <g id="telegram" transform="translate(-405 -5707)">
    <circle id="Ellipse_22" data-name="Ellipse 22" cx="25" cy="25" r="25" transform="translate(405 5707)" fill="#768ba3"/>
    <path id="telegram-2" data-name="telegram" d="M19.944,6.055,16.926,20.289c-.228,1-.822,1.255-1.665.781l-4.6-3.389L8.443,19.815a1.155,1.155,0,0,1-.924.451l.33-4.683,8.523-7.7c.371-.33-.08-.513-.576-.183L5.26,14.333.724,12.913c-.987-.308-1-.987.205-1.46L18.672,4.617c.822-.308,1.54.183,1.272,1.438Z" transform="translate(419.999 5719.085)" fill="#fff"/>
  </g>
</svg>
